<?xml version="1.0" encoding="utf-8"?>
<svg xmlns="http://www.w3.org/2000/svg" xmlns:xlink="http://www.w3.org/1999/xlink" width="500" height="308" viewBox="0 0 2000 1232">
<defs>
  <clipPath id="clip480">
    <rect x="0" y="0" width="2000" height="1232"/>
  </clipPath>
</defs>
<path clip-path="url(#clip480)" d="M0 1232 L2000 1232 L2000 1.59872e-14 L0 1.59872e-14  Z" fill="#ffffff" fill-rule="evenodd" fill-opacity="1"/>
<defs>
  <clipPath id="clip481">
    <rect x="211" y="47" width="1742" height="1019"/>
  </clipPath>
</defs>
<path clip-path="url(#clip480)" d="M211.421 1065.1 L1952.76 1065.1 L1952.76 47.2441 L211.421 47.2441  Z" fill="#ffffff" fill-rule="evenodd" fill-opacity="1"/>
<polyline clip-path="url(#clip480)" style="stroke:#000000; stroke-linecap:round; stroke-linejoin:round; stroke-width:4; stroke-opacity:1; fill:none" points="211.421,1065.1 1952.76,1065.1 "/>
<polyline clip-path="url(#clip480)" style="stroke:#000000; stroke-linecap:round; stroke-linejoin:round; stroke-width:4; stroke-opacity:1; fill:none" points="443.234,1065.1 443.234,1046.2 "/>
<polyline clip-path="url(#clip480)" style="stroke:#000000; stroke-linecap:round; stroke-linejoin:round; stroke-width:4; stroke-opacity:1; fill:none" points="808.294,1065.1 808.294,1046.2 "/>
<polyline clip-path="url(#clip480)" style="stroke:#000000; stroke-linecap:round; stroke-linejoin:round; stroke-width:4; stroke-opacity:1; fill:none" points="1173.35,1065.1 1173.35,1046.2 "/>
<polyline clip-path="url(#clip480)" style="stroke:#000000; stroke-linecap:round; stroke-linejoin:round; stroke-width:4; stroke-opacity:1; fill:none" points="1538.41,1065.1 1538.41,1046.2 "/>
<polyline clip-path="url(#clip480)" style="stroke:#000000; stroke-linecap:round; stroke-linejoin:round; stroke-width:4; stroke-opacity:1; fill:none" points="1903.47,1065.1 1903.47,1046.2 "/>
<path clip-path="url(#clip480)" d="M437.887 1120.36 L454.206 1120.36 L454.206 1124.3 L432.262 1124.3 L432.262 1120.36 Q434.924 1117.61 439.507 1112.98 Q444.114 1108.33 445.294 1106.98 Q447.54 1104.46 448.419 1102.72 Q449.322 1100.96 449.322 1099.27 Q449.322 1096.52 447.378 1094.78 Q445.456 1093.05 442.355 1093.05 Q440.156 1093.05 437.702 1093.81 Q435.271 1094.58 432.494 1096.13 L432.494 1091.4 Q435.318 1090.27 437.771 1089.69 Q440.225 1089.11 442.262 1089.11 Q447.632 1089.11 450.827 1091.8 Q454.021 1094.48 454.021 1098.97 Q454.021 1101.1 453.211 1103.02 Q452.424 1104.92 450.318 1107.52 Q449.739 1108.19 446.637 1111.4 Q443.535 1114.6 437.887 1120.36 Z" fill="#000000" fill-rule="nonzero" fill-opacity="1" /><path clip-path="url(#clip480)" d="M811.303 1093.81 L799.498 1112.26 L811.303 1112.26 L811.303 1093.81 M810.076 1089.74 L815.956 1089.74 L815.956 1112.26 L820.886 1112.26 L820.886 1116.15 L815.956 1116.15 L815.956 1124.3 L811.303 1124.3 L811.303 1116.15 L795.701 1116.15 L795.701 1111.64 L810.076 1089.74 Z" fill="#000000" fill-rule="nonzero" fill-opacity="1" /><path clip-path="url(#clip480)" d="M1173.76 1105.15 Q1170.61 1105.15 1168.76 1107.31 Q1166.93 1109.46 1166.93 1113.21 Q1166.93 1116.94 1168.76 1119.11 Q1170.61 1121.27 1173.76 1121.27 Q1176.91 1121.27 1178.74 1119.11 Q1180.59 1116.94 1180.59 1113.21 Q1180.59 1109.46 1178.74 1107.31 Q1176.91 1105.15 1173.76 1105.15 M1183.04 1090.5 L1183.04 1094.76 Q1181.28 1093.93 1179.48 1093.49 Q1177.69 1093.05 1175.93 1093.05 Q1171.3 1093.05 1168.85 1096.17 Q1166.42 1099.3 1166.07 1105.62 Q1167.44 1103.6 1169.5 1102.54 Q1171.56 1101.45 1174.04 1101.45 Q1179.24 1101.45 1182.25 1104.62 Q1185.29 1107.77 1185.29 1113.21 Q1185.29 1118.53 1182.14 1121.75 Q1178.99 1124.97 1173.76 1124.97 Q1167.76 1124.97 1164.59 1120.39 Q1161.42 1115.78 1161.42 1107.05 Q1161.42 1098.86 1165.31 1094 Q1169.2 1089.11 1175.75 1089.11 Q1177.51 1089.11 1179.29 1089.46 Q1181.1 1089.81 1183.04 1090.5 Z" fill="#000000" fill-rule="nonzero" fill-opacity="1" /><path clip-path="url(#clip480)" d="M1538.41 1107.89 Q1535.08 1107.89 1533.16 1109.67 Q1531.26 1111.45 1531.26 1114.58 Q1531.26 1117.7 1533.16 1119.48 Q1535.08 1121.27 1538.41 1121.27 Q1541.75 1121.27 1543.67 1119.48 Q1545.59 1117.68 1545.59 1114.58 Q1545.59 1111.45 1543.67 1109.67 Q1541.77 1107.89 1538.41 1107.89 M1533.74 1105.9 Q1530.73 1105.15 1529.04 1103.09 Q1527.37 1101.03 1527.37 1098.07 Q1527.37 1093.93 1530.31 1091.52 Q1533.27 1089.11 1538.41 1089.11 Q1543.58 1089.11 1546.52 1091.52 Q1549.45 1093.93 1549.45 1098.07 Q1549.45 1101.03 1547.77 1103.09 Q1546.1 1105.15 1543.11 1105.9 Q1546.49 1106.68 1548.37 1108.97 Q1550.27 1111.27 1550.27 1114.58 Q1550.27 1119.6 1547.19 1122.28 Q1544.13 1124.97 1538.41 1124.97 Q1532.7 1124.97 1529.62 1122.28 Q1526.56 1119.6 1526.56 1114.58 Q1526.56 1111.27 1528.46 1108.97 Q1530.36 1106.68 1533.74 1105.9 M1532.02 1098.51 Q1532.02 1101.2 1533.69 1102.7 Q1535.38 1104.21 1538.41 1104.21 Q1541.42 1104.21 1543.11 1102.7 Q1544.83 1101.2 1544.83 1098.51 Q1544.83 1095.83 1543.11 1094.32 Q1541.42 1092.82 1538.41 1092.82 Q1535.38 1092.82 1533.69 1094.32 Q1532.02 1095.83 1532.02 1098.51 Z" fill="#000000" fill-rule="nonzero" fill-opacity="1" /><path clip-path="url(#clip480)" d="M1878.16 1120.36 L1885.8 1120.36 L1885.8 1094 L1877.49 1095.66 L1877.49 1091.4 L1885.75 1089.74 L1890.43 1089.74 L1890.43 1120.36 L1898.07 1120.36 L1898.07 1124.3 L1878.16 1124.3 L1878.16 1120.36 Z" fill="#000000" fill-rule="nonzero" fill-opacity="1" /><path clip-path="url(#clip480)" d="M1917.51 1092.82 Q1913.9 1092.82 1912.07 1096.38 Q1910.27 1099.92 1910.27 1107.05 Q1910.27 1114.16 1912.07 1117.72 Q1913.9 1121.27 1917.51 1121.27 Q1921.15 1121.27 1922.95 1117.72 Q1924.78 1114.16 1924.78 1107.05 Q1924.78 1099.92 1922.95 1096.38 Q1921.15 1092.82 1917.51 1092.82 M1917.51 1089.11 Q1923.32 1089.11 1926.38 1093.72 Q1929.46 1098.3 1929.46 1107.05 Q1929.46 1115.78 1926.38 1120.39 Q1923.32 1124.97 1917.51 1124.97 Q1911.7 1124.97 1908.62 1120.39 Q1905.57 1115.78 1905.57 1107.05 Q1905.57 1098.3 1908.62 1093.72 Q1911.7 1089.11 1917.51 1089.11 Z" fill="#000000" fill-rule="nonzero" fill-opacity="1" /><path clip-path="url(#clip480)" d="M980.583 1153.89 L980.583 1160.67 Q977.336 1157.64 973.644 1156.15 Q969.984 1154.65 965.846 1154.65 Q957.698 1154.65 953.369 1159.65 Q949.041 1164.61 949.041 1174.04 Q949.041 1183.43 953.369 1188.42 Q957.698 1193.39 965.846 1193.39 Q969.984 1193.39 973.644 1191.89 Q977.336 1190.4 980.583 1187.37 L980.583 1194.09 Q977.209 1196.38 973.421 1197.53 Q969.665 1198.67 965.464 1198.67 Q954.674 1198.67 948.468 1192.08 Q942.261 1185.46 942.261 1174.04 Q942.261 1162.58 948.468 1155.99 Q954.674 1149.37 965.464 1149.37 Q969.729 1149.37 973.485 1150.51 Q977.272 1151.63 980.583 1153.89 Z" fill="#000000" fill-rule="nonzero" fill-opacity="1" /><path clip-path="url(#clip480)" d="M1006.46 1179.83 Q999.361 1179.83 996.624 1181.45 Q993.887 1183.08 993.887 1186.99 Q993.887 1190.11 995.924 1191.96 Q997.993 1193.77 1001.53 1193.77 Q1006.4 1193.77 1009.32 1190.33 Q1012.28 1186.86 1012.28 1181.13 L1012.28 1179.83 L1006.46 1179.83 M1018.14 1177.41 L1018.14 1197.75 L1012.28 1197.75 L1012.28 1192.34 Q1010.28 1195.58 1007.29 1197.14 Q1004.29 1198.67 999.966 1198.67 Q994.492 1198.67 991.245 1195.62 Q988.031 1192.53 988.031 1187.37 Q988.031 1181.36 992.041 1178.3 Q996.083 1175.25 1004.07 1175.25 L1012.28 1175.25 L1012.28 1174.67 Q1012.28 1170.63 1009.61 1168.43 Q1006.97 1166.21 1002.16 1166.21 Q999.107 1166.21 996.21 1166.94 Q993.314 1167.67 990.64 1169.13 L990.64 1163.72 Q993.855 1162.48 996.879 1161.88 Q999.903 1161.24 1002.77 1161.24 Q1010.5 1161.24 1014.32 1165.25 Q1018.14 1169.26 1018.14 1177.41 Z" fill="#000000" fill-rule="nonzero" fill-opacity="1" /><path clip-path="url(#clip480)" d="M1035.87 1192.4 L1035.87 1211.31 L1029.98 1211.31 L1029.98 1162.1 L1035.87 1162.1 L1035.87 1167.51 Q1037.71 1164.33 1040.52 1162.8 Q1043.35 1161.24 1047.26 1161.24 Q1053.76 1161.24 1057.8 1166.4 Q1061.87 1171.55 1061.87 1179.96 Q1061.87 1188.36 1057.8 1193.51 Q1053.76 1198.67 1047.26 1198.67 Q1043.35 1198.67 1040.52 1197.14 Q1037.71 1195.58 1035.87 1192.4 M1055.79 1179.96 Q1055.79 1173.49 1053.12 1169.83 Q1050.48 1166.14 1045.83 1166.14 Q1041.18 1166.14 1038.51 1169.83 Q1035.87 1173.49 1035.87 1179.96 Q1035.87 1186.42 1038.51 1190.11 Q1041.18 1193.77 1045.83 1193.77 Q1050.48 1193.77 1053.12 1190.11 Q1055.79 1186.42 1055.79 1179.96 Z" fill="#000000" fill-rule="nonzero" fill-opacity="1" /><path clip-path="url(#clip480)" d="M1071.58 1162.1 L1077.44 1162.1 L1077.44 1197.75 L1071.58 1197.75 L1071.58 1162.1 M1071.58 1148.22 L1077.44 1148.22 L1077.44 1155.64 L1071.58 1155.64 L1071.58 1148.22 Z" fill="#000000" fill-rule="nonzero" fill-opacity="1" /><path clip-path="url(#clip480)" d="M1095.48 1151.98 L1095.48 1162.1 L1107.55 1162.1 L1107.55 1166.65 L1095.48 1166.65 L1095.48 1186 Q1095.48 1190.36 1096.66 1191.61 Q1097.87 1192.85 1101.53 1192.85 L1107.55 1192.85 L1107.55 1197.75 L1101.53 1197.75 Q1094.75 1197.75 1092.17 1195.23 Q1089.6 1192.69 1089.6 1186 L1089.6 1166.65 L1085.3 1166.65 L1085.3 1162.1 L1089.6 1162.1 L1089.6 1151.98 L1095.48 1151.98 Z" fill="#000000" fill-rule="nonzero" fill-opacity="1" /><path clip-path="url(#clip480)" d="M1131.45 1179.83 Q1124.35 1179.83 1121.61 1181.45 Q1118.88 1183.08 1118.88 1186.99 Q1118.88 1190.11 1120.91 1191.96 Q1122.98 1193.77 1126.52 1193.77 Q1131.39 1193.77 1134.31 1190.33 Q1137.27 1186.86 1137.27 1181.13 L1137.27 1179.83 L1131.45 1179.83 M1143.13 1177.41 L1143.13 1197.75 L1137.27 1197.75 L1137.27 1192.34 Q1135.27 1195.58 1132.28 1197.14 Q1129.29 1198.67 1124.96 1198.67 Q1119.48 1198.67 1116.24 1195.62 Q1113.02 1192.53 1113.02 1187.37 Q1113.02 1181.36 1117.03 1178.3 Q1121.07 1175.25 1129.06 1175.25 L1137.27 1175.25 L1137.27 1174.67 Q1137.27 1170.63 1134.6 1168.43 Q1131.96 1166.21 1127.15 1166.21 Q1124.1 1166.21 1121.2 1166.94 Q1118.3 1167.67 1115.63 1169.13 L1115.63 1163.72 Q1118.85 1162.48 1121.87 1161.88 Q1124.89 1161.24 1127.76 1161.24 Q1135.49 1161.24 1139.31 1165.25 Q1143.13 1169.26 1143.13 1177.41 Z" fill="#000000" fill-rule="nonzero" fill-opacity="1" /><path clip-path="url(#clip480)" d="M1155.19 1148.22 L1161.05 1148.22 L1161.05 1197.75 L1155.19 1197.75 L1155.19 1148.22 Z" fill="#000000" fill-rule="nonzero" fill-opacity="1" /><path clip-path="url(#clip480)" d="M1217.74 1172.76 Q1217.74 1174.59 1216.61 1175.69 Q1215.51 1176.78 1214.13 1176.78 Q1212.91 1176.78 1212.26 1176.07 Q1211.62 1175.37 1211.62 1174.46 Q1211.62 1174.08 1211.78 1173.59 Q1211.94 1173.08 1212.29 1172.47 Q1212.68 1171.85 1213.49 1171.4 Q1214.29 1170.95 1215.39 1170.89 Q1215.16 1170.66 1215.1 1170.63 Q1214.61 1170.24 1213.71 1170.12 Q1213.58 1170.05 1213.13 1170.05 Q1210.91 1170.05 1208.65 1171.69 Q1206.43 1173.3 1203.69 1176.36 Q1200.25 1179.94 1198.03 1181.26 Q1207.79 1182.55 1207.79 1188.18 Q1207.79 1189.12 1207.53 1190.24 Q1207.01 1192.37 1207.01 1193.92 Q1207.01 1197.01 1209.11 1197.01 Q1211.13 1197.01 1212.42 1194.95 Q1213.74 1192.89 1214.84 1188.86 Q1215 1188.12 1215.16 1187.89 Q1215.32 1187.67 1215.77 1187.67 Q1216.58 1187.67 1216.58 1188.31 Q1215.84 1192.08 1214.19 1194.98 Q1212.1 1198.49 1208.98 1198.49 Q1206.37 1198.49 1204.63 1196.69 Q1202.92 1194.85 1202.92 1191.95 Q1202.92 1191.24 1203.18 1189.63 Q1203.37 1188.99 1203.37 1188.25 Q1203.37 1186.73 1202.54 1185.61 Q1201.7 1184.45 1200.35 1183.87 Q1198.99 1183.29 1197.87 1183.03 Q1196.77 1182.74 1195.71 1182.64 Q1192.49 1196.27 1192.04 1197.1 Q1191.75 1197.68 1191.1 1198.07 Q1190.46 1198.49 1189.78 1198.49 Q1189.14 1198.49 1188.49 1198.04 Q1187.88 1197.62 1187.88 1196.62 Q1187.88 1196.11 1188.14 1195.17 L1197.7 1157.17 L1197.9 1155.88 Q1197.9 1155.49 1197.74 1155.3 Q1197.61 1155.08 1196.84 1154.91 Q1196.09 1154.75 1194.61 1154.75 Q1194 1154.75 1193.71 1154.72 Q1193.45 1154.69 1193.23 1154.53 Q1193 1154.33 1193 1153.95 Q1193 1153.4 1193.23 1153.11 Q1193.49 1152.79 1193.68 1152.72 Q1193.87 1152.66 1194.26 1152.63 Q1194.81 1152.6 1196.64 1152.43 Q1198.48 1152.24 1200.06 1152.11 Q1201.63 1151.98 1202.31 1151.98 Q1202.7 1151.98 1202.89 1152.18 Q1203.12 1152.34 1203.15 1152.53 L1203.18 1152.69 L1196.32 1180.52 Q1199.15 1179.39 1203.63 1174.4 Q1208.82 1168.6 1213.26 1168.6 Q1215.35 1168.6 1216.55 1169.89 Q1217.74 1171.15 1217.74 1172.76 Z" fill="#000000" fill-rule="nonzero" fill-opacity="1" /><polyline clip-path="url(#clip480)" style="stroke:#000000; stroke-linecap:round; stroke-linejoin:round; stroke-width:4; stroke-opacity:1; fill:none" points="211.421,1065.1 211.421,47.2441 "/>
<polyline clip-path="url(#clip480)" style="stroke:#000000; stroke-linecap:round; stroke-linejoin:round; stroke-width:4; stroke-opacity:1; fill:none" points="211.421,1056.06 230.319,1056.06 "/>
<polyline clip-path="url(#clip480)" style="stroke:#000000; stroke-linecap:round; stroke-linejoin:round; stroke-width:4; stroke-opacity:1; fill:none" points="211.421,742.559 230.319,742.559 "/>
<polyline clip-path="url(#clip480)" style="stroke:#000000; stroke-linecap:round; stroke-linejoin:round; stroke-width:4; stroke-opacity:1; fill:none" points="211.421,429.054 230.319,429.054 "/>
<polyline clip-path="url(#clip480)" style="stroke:#000000; stroke-linecap:round; stroke-linejoin:round; stroke-width:4; stroke-opacity:1; fill:none" points="211.421,115.55 230.319,115.55 "/>
<path clip-path="url(#clip480)" d="M125.241 1041.86 Q121.63 1041.86 119.801 1045.43 Q117.996 1048.97 117.996 1056.1 Q117.996 1063.2 119.801 1066.77 Q121.63 1070.31 125.241 1070.31 Q128.875 1070.31 130.681 1066.77 Q132.51 1063.2 132.51 1056.1 Q132.51 1048.97 130.681 1045.43 Q128.875 1041.86 125.241 1041.86 M125.241 1038.16 Q131.051 1038.16 134.107 1042.76 Q137.186 1047.35 137.186 1056.1 Q137.186 1064.82 134.107 1069.43 Q131.051 1074.01 125.241 1074.01 Q119.431 1074.01 116.352 1069.43 Q113.297 1064.82 113.297 1056.1 Q113.297 1047.35 116.352 1042.76 Q119.431 1038.16 125.241 1038.16 Z" fill="#000000" fill-rule="nonzero" fill-opacity="1" /><path clip-path="url(#clip480)" d="M145.403 1067.46 L150.287 1067.46 L150.287 1073.34 L145.403 1073.34 L145.403 1067.46 Z" fill="#000000" fill-rule="nonzero" fill-opacity="1" /><path clip-path="url(#clip480)" d="M160.519 1038.78 L178.875 1038.78 L178.875 1042.72 L164.801 1042.72 L164.801 1051.19 Q165.82 1050.84 166.838 1050.68 Q167.857 1050.5 168.875 1050.5 Q174.662 1050.5 178.042 1053.67 Q181.421 1056.84 181.421 1062.26 Q181.421 1067.83 177.949 1070.94 Q174.477 1074.01 168.158 1074.01 Q165.982 1074.01 163.713 1073.64 Q161.468 1073.27 159.06 1072.53 L159.06 1067.83 Q161.144 1068.97 163.366 1069.52 Q165.588 1070.08 168.065 1070.08 Q172.07 1070.08 174.408 1067.97 Q176.746 1065.87 176.746 1062.26 Q176.746 1058.64 174.408 1056.54 Q172.07 1054.43 168.065 1054.43 Q166.19 1054.43 164.315 1054.85 Q162.463 1055.26 160.519 1056.14 L160.519 1038.78 Z" fill="#000000" fill-rule="nonzero" fill-opacity="1" /><path clip-path="url(#clip480)" d="M115.056 755.903 L122.695 755.903 L122.695 729.538 L114.385 731.204 L114.385 726.945 L122.649 725.279 L127.324 725.279 L127.324 755.903 L134.963 755.903 L134.963 759.839 L115.056 759.839 L115.056 755.903 Z" fill="#000000" fill-rule="nonzero" fill-opacity="1" /><path clip-path="url(#clip480)" d="M144.408 753.959 L149.292 753.959 L149.292 759.839 L144.408 759.839 L144.408 753.959 Z" fill="#000000" fill-rule="nonzero" fill-opacity="1" /><path clip-path="url(#clip480)" d="M169.477 728.357 Q165.866 728.357 164.037 731.922 Q162.232 735.464 162.232 742.593 Q162.232 749.7 164.037 753.265 Q165.866 756.806 169.477 756.806 Q173.111 756.806 174.917 753.265 Q176.746 749.7 176.746 742.593 Q176.746 735.464 174.917 731.922 Q173.111 728.357 169.477 728.357 M169.477 724.654 Q175.287 724.654 178.343 729.26 Q181.421 733.843 181.421 742.593 Q181.421 751.32 178.343 755.927 Q175.287 760.51 169.477 760.51 Q163.667 760.51 160.588 755.927 Q157.533 751.32 157.533 742.593 Q157.533 733.843 160.588 729.26 Q163.667 724.654 169.477 724.654 Z" fill="#000000" fill-rule="nonzero" fill-opacity="1" /><path clip-path="url(#clip480)" d="M116.051 442.399 L123.69 442.399 L123.69 416.033 L115.38 417.7 L115.38 413.441 L123.644 411.774 L128.32 411.774 L128.32 442.399 L135.959 442.399 L135.959 446.334 L116.051 446.334 L116.051 442.399 Z" fill="#000000" fill-rule="nonzero" fill-opacity="1" /><path clip-path="url(#clip480)" d="M145.403 440.454 L150.287 440.454 L150.287 446.334 L145.403 446.334 L145.403 440.454 Z" fill="#000000" fill-rule="nonzero" fill-opacity="1" /><path clip-path="url(#clip480)" d="M160.519 411.774 L178.875 411.774 L178.875 415.709 L164.801 415.709 L164.801 424.181 Q165.82 423.834 166.838 423.672 Q167.857 423.487 168.875 423.487 Q174.662 423.487 178.042 426.658 Q181.421 429.83 181.421 435.246 Q181.421 440.825 177.949 443.927 Q174.477 447.005 168.158 447.005 Q165.982 447.005 163.713 446.635 Q161.468 446.265 159.06 445.524 L159.06 440.825 Q161.144 441.959 163.366 442.515 Q165.588 443.07 168.065 443.07 Q172.07 443.07 174.408 440.964 Q176.746 438.857 176.746 435.246 Q176.746 431.635 174.408 429.529 Q172.07 427.422 168.065 427.422 Q166.19 427.422 164.315 427.839 Q162.463 428.255 160.519 429.135 L160.519 411.774 Z" fill="#000000" fill-rule="nonzero" fill-opacity="1" /><path clip-path="url(#clip480)" d="M118.274 128.894 L134.593 128.894 L134.593 132.83 L112.649 132.83 L112.649 128.894 Q115.311 126.14 119.894 121.51 Q124.5 116.857 125.681 115.515 Q127.926 112.992 128.806 111.256 Q129.709 109.496 129.709 107.807 Q129.709 105.052 127.764 103.316 Q125.843 101.58 122.741 101.58 Q120.542 101.58 118.088 102.344 Q115.658 103.107 112.88 104.658 L112.88 99.9362 Q115.704 98.8019 118.158 98.2232 Q120.612 97.6445 122.649 97.6445 Q128.019 97.6445 131.213 100.33 Q134.408 103.015 134.408 107.506 Q134.408 109.635 133.598 111.557 Q132.811 113.455 130.704 116.047 Q130.125 116.719 127.024 119.936 Q123.922 123.131 118.274 128.894 Z" fill="#000000" fill-rule="nonzero" fill-opacity="1" /><path clip-path="url(#clip480)" d="M144.408 126.95 L149.292 126.95 L149.292 132.83 L144.408 132.83 L144.408 126.95 Z" fill="#000000" fill-rule="nonzero" fill-opacity="1" /><path clip-path="url(#clip480)" d="M169.477 101.348 Q165.866 101.348 164.037 104.913 Q162.232 108.455 162.232 115.584 Q162.232 122.691 164.037 126.255 Q165.866 129.797 169.477 129.797 Q173.111 129.797 174.917 126.255 Q176.746 122.691 176.746 115.584 Q176.746 108.455 174.917 104.913 Q173.111 101.348 169.477 101.348 M169.477 97.6445 Q175.287 97.6445 178.343 102.251 Q181.421 106.834 181.421 115.584 Q181.421 124.311 178.343 128.918 Q175.287 133.501 169.477 133.501 Q163.667 133.501 160.588 128.918 Q157.533 124.311 157.533 115.584 Q157.533 106.834 160.588 102.251 Q163.667 97.6445 169.477 97.6445 Z" fill="#000000" fill-rule="nonzero" fill-opacity="1" /><path clip-path="url(#clip480)" d="M24.7742 847.501 L31.5537 847.501 Q28.53 850.747 27.034 854.439 Q25.5381 858.1 25.5381 862.237 Q25.5381 870.385 30.5351 874.714 Q35.5004 879.043 44.9216 879.043 Q54.3111 879.043 59.3081 874.714 Q64.2734 870.385 64.2734 862.237 Q64.2734 858.1 62.7775 854.439 Q61.2815 850.747 58.2578 847.501 L64.9736 847.501 Q67.2653 850.875 68.4111 854.662 Q69.5569 858.418 69.5569 862.619 Q69.5569 873.409 62.9684 879.616 Q56.3481 885.822 44.9216 885.822 Q33.4634 885.822 26.8749 879.616 Q20.2545 873.409 20.2545 862.619 Q20.2545 858.354 21.4004 854.598 Q22.5144 850.811 24.7742 847.501 Z" fill="#000000" fill-rule="nonzero" fill-opacity="1" /><path clip-path="url(#clip480)" d="M37.0918 824.011 Q37.0918 828.722 40.7839 831.459 Q44.4442 834.196 50.8418 834.196 Q57.2393 834.196 60.9314 831.491 Q64.5917 828.754 64.5917 824.011 Q64.5917 819.332 60.8996 816.595 Q57.2075 813.858 50.8418 813.858 Q44.5079 813.858 40.8158 816.595 Q37.0918 819.332 37.0918 824.011 M32.1266 824.011 Q32.1266 816.372 37.0918 812.012 Q42.0571 807.651 50.8418 807.651 Q59.5946 807.651 64.5917 812.012 Q69.5569 816.372 69.5569 824.011 Q69.5569 831.682 64.5917 836.042 Q59.5946 840.371 50.8418 840.371 Q42.0571 840.371 37.0918 836.042 Q32.1266 831.682 32.1266 824.011 Z" fill="#000000" fill-rule="nonzero" fill-opacity="1" /><path clip-path="url(#clip480)" d="M47.1178 768.311 L68.6339 768.311 L68.6339 774.168 L47.3088 774.168 Q42.248 774.168 39.7336 776.141 Q37.2191 778.115 37.2191 782.061 Q37.2191 786.804 40.2429 789.541 Q43.2666 792.278 48.4864 792.278 L68.6339 792.278 L68.6339 798.166 L32.9859 798.166 L32.9859 792.278 L38.5241 792.278 Q35.3094 790.178 33.718 787.345 Q32.1266 784.48 32.1266 780.756 Q32.1266 774.613 35.946 771.462 Q39.7336 768.311 47.1178 768.311 Z" fill="#000000" fill-rule="nonzero" fill-opacity="1" /><path clip-path="url(#clip480)" d="M34.0363 733.905 L39.5745 733.905 Q38.3013 736.387 37.6647 739.061 Q37.0282 741.735 37.0282 744.599 Q37.0282 748.96 38.365 751.156 Q39.7018 753.32 42.3754 753.32 Q44.4124 753.32 45.59 751.76 Q46.7359 750.201 47.7862 745.49 L48.2318 743.485 Q49.5686 737.247 52.0194 734.637 Q54.4384 731.995 58.7989 731.995 Q63.7641 731.995 66.6605 735.942 Q69.5569 739.857 69.5569 746.732 Q69.5569 749.596 68.984 752.715 Q68.4429 755.803 67.3289 759.24 L61.2815 759.24 Q62.9684 755.994 63.8278 752.843 Q64.6553 749.692 64.6553 746.604 Q64.6553 742.467 63.2549 740.239 Q61.8226 738.011 59.2445 738.011 Q56.8573 738.011 55.5842 739.634 Q54.3111 741.225 53.1334 746.668 L52.656 748.705 Q51.5102 754.148 49.1548 756.567 Q46.7677 758.986 42.63 758.986 Q37.6011 758.986 34.8638 755.421 Q32.1266 751.856 32.1266 745.299 Q32.1266 742.053 32.604 739.188 Q33.0814 736.324 34.0363 733.905 Z" fill="#000000" fill-rule="nonzero" fill-opacity="1" /><path clip-path="url(#clip480)" d="M54.5657 723.274 L32.9859 723.274 L32.9859 717.418 L54.3429 717.418 Q59.4036 717.418 61.9499 715.444 Q64.4644 713.471 64.4644 709.524 Q64.4644 704.782 61.4407 702.044 Q58.4169 699.275 53.1971 699.275 L32.9859 699.275 L32.9859 693.419 L68.6339 693.419 L68.6339 699.275 L63.1594 699.275 Q66.4059 701.408 67.9973 704.24 Q69.5569 707.041 69.5569 710.765 Q69.5569 716.908 65.7375 720.091 Q61.9181 723.274 54.5657 723.274 M32.1266 708.537 L32.1266 708.537 Z" fill="#000000" fill-rule="nonzero" fill-opacity="1" /><path clip-path="url(#clip480)" d="M39.8291 653.601 Q35.8823 651.405 34.0045 648.35 Q32.1266 645.294 32.1266 641.156 Q32.1266 635.586 36.0415 632.563 Q39.9246 629.539 47.1178 629.539 L68.6339 629.539 L68.6339 635.427 L47.3088 635.427 Q42.1844 635.427 39.7018 637.241 Q37.2191 639.056 37.2191 642.78 Q37.2191 647.331 40.2429 649.973 Q43.2666 652.615 48.4864 652.615 L68.6339 652.615 L68.6339 658.503 L47.3088 658.503 Q42.1526 658.503 39.7018 660.317 Q37.2191 662.131 37.2191 665.919 Q37.2191 670.407 40.2747 673.049 Q43.2984 675.69 48.4864 675.69 L68.6339 675.69 L68.6339 681.579 L32.9859 681.579 L32.9859 675.69 L38.5241 675.69 Q35.2458 673.685 33.6862 670.884 Q32.1266 668.083 32.1266 664.232 Q32.1266 660.349 34.0999 657.644 Q36.0733 654.906 39.8291 653.601 Z" fill="#000000" fill-rule="nonzero" fill-opacity="1" /><path clip-path="url(#clip480)" d="M63.2867 612.192 L82.1929 612.192 L82.1929 618.081 L32.9859 618.081 L32.9859 612.192 L38.3968 612.192 Q35.2139 610.346 33.6862 607.545 Q32.1266 604.713 32.1266 600.798 Q32.1266 594.305 37.2828 590.263 Q42.439 586.188 50.8418 586.188 Q59.2445 586.188 64.4007 590.263 Q69.5569 594.305 69.5569 600.798 Q69.5569 604.713 68.0292 607.545 Q66.4696 610.346 63.2867 612.192 M50.8418 592.268 Q44.3806 592.268 40.7203 594.941 Q37.0282 597.583 37.0282 602.23 Q37.0282 606.877 40.7203 609.551 Q44.3806 612.192 50.8418 612.192 Q57.3029 612.192 60.9951 609.551 Q64.6553 606.877 64.6553 602.23 Q64.6553 597.583 60.9951 594.941 Q57.3029 592.268 50.8418 592.268 Z" fill="#000000" fill-rule="nonzero" fill-opacity="1" /><path clip-path="url(#clip480)" d="M22.8645 570.688 L32.9859 570.688 L32.9859 558.625 L37.5374 558.625 L37.5374 570.688 L56.8892 570.688 Q61.2497 570.688 62.491 569.51 Q63.7323 568.301 63.7323 564.641 L63.7323 558.625 L68.6339 558.625 L68.6339 564.641 Q68.6339 571.42 66.1194 573.998 Q63.5732 576.576 56.8892 576.576 L37.5374 576.576 L37.5374 580.873 L32.9859 580.873 L32.9859 576.576 L22.8645 576.576 L22.8645 570.688 Z" fill="#000000" fill-rule="nonzero" fill-opacity="1" /><path clip-path="url(#clip480)" d="M32.9859 550.922 L32.9859 545.066 L68.6339 545.066 L68.6339 550.922 L32.9859 550.922 M19.1087 550.922 L19.1087 545.066 L26.5248 545.066 L26.5248 550.922 L19.1087 550.922 Z" fill="#000000" fill-rule="nonzero" fill-opacity="1" /><path clip-path="url(#clip480)" d="M37.0918 518.998 Q37.0918 523.709 40.7839 526.446 Q44.4442 529.184 50.8418 529.184 Q57.2393 529.184 60.9314 526.478 Q64.5917 523.741 64.5917 518.998 Q64.5917 514.32 60.8996 511.582 Q57.2075 508.845 50.8418 508.845 Q44.5079 508.845 40.8158 511.582 Q37.0918 514.32 37.0918 518.998 M32.1266 518.998 Q32.1266 511.36 37.0918 506.999 Q42.0571 502.639 50.8418 502.639 Q59.5946 502.639 64.5917 506.999 Q69.5569 511.36 69.5569 518.998 Q69.5569 526.669 64.5917 531.03 Q59.5946 535.358 50.8418 535.358 Q42.0571 535.358 37.0918 531.03 Q32.1266 526.669 32.1266 518.998 Z" fill="#000000" fill-rule="nonzero" fill-opacity="1" /><path clip-path="url(#clip480)" d="M47.1178 463.298 L68.6339 463.298 L68.6339 469.155 L47.3088 469.155 Q42.248 469.155 39.7336 471.128 Q37.2191 473.102 37.2191 477.048 Q37.2191 481.791 40.2429 484.528 Q43.2666 487.265 48.4864 487.265 L68.6339 487.265 L68.6339 493.154 L32.9859 493.154 L32.9859 487.265 L38.5241 487.265 Q35.3094 485.165 33.718 482.332 Q32.1266 479.467 32.1266 475.743 Q32.1266 469.601 35.946 466.45 Q39.7336 463.298 47.1178 463.298 Z" fill="#000000" fill-rule="nonzero" fill-opacity="1" /><path clip-path="url(#clip480)" d="M59.1976 404.673 Q59.4552 404.673 60.4536 404.963 Q61.452 405.253 62.9979 405.961 Q64.5438 406.638 65.9608 407.572 Q67.3457 408.506 68.3763 410.051 Q69.3746 411.565 69.3746 413.304 Q69.3746 415.623 67.8288 417.169 Q66.2829 418.715 63.9641 418.715 Q63.642 418.715 63.3199 418.683 Q62.9979 418.65 62.8046 418.618 Q62.5792 418.586 62.2249 418.489 Q61.8385 418.361 61.6774 418.328 Q61.5164 418.264 61.0333 418.103 Q60.518 417.91 60.3248 417.845 Q49.8901 413.755 45.5423 413.755 Q40.9369 413.755 40.9369 417.33 Q40.9369 420.518 43.2557 423.675 Q44.4151 425.124 46.4763 426.509 Q48.5374 427.893 49.3104 428.151 Q50.9851 428.441 52.2733 428.86 Q53.1751 429.053 56.6855 429.987 L62.6436 431.436 L67.6355 432.692 Q68.3441 432.95 68.8593 433.658 Q69.3746 434.367 69.3746 435.14 Q69.3746 435.784 68.9238 436.428 Q68.5051 437.04 67.5067 437.04 Q66.9914 437.04 66.0574 436.782 L28.0545 427.217 L26.7663 427.024 Q26.3798 427.024 26.1866 427.185 Q25.9611 427.314 25.8001 428.087 Q25.6391 428.827 25.6391 430.309 Q25.6391 430.921 25.6069 431.211 Q25.5747 431.468 25.4136 431.694 Q25.2204 431.919 24.8339 431.919 Q24.2864 431.919 23.9966 431.694 Q23.6745 431.436 23.6101 431.243 Q23.5457 431.05 23.5135 430.663 Q23.4813 430.116 23.3203 428.28 Q23.127 426.444 22.9982 424.866 Q22.8694 423.288 22.8694 422.612 Q22.8694 422.225 23.0626 422.032 Q23.2236 421.807 23.4169 421.774 L23.5779 421.742 L44.5439 426.895 Q39.4876 422.805 39.4876 417.137 Q39.4876 413.465 41.3877 411.501 Q43.2557 409.536 46.5407 409.536 Q50.3088 409.536 61.0333 413.562 Q64.0285 414.754 65.7354 414.754 Q66.8626 414.754 67.3779 414.399 Q67.8932 414.013 67.8932 413.175 Q67.8932 411.887 67.1524 410.76 Q66.3795 409.601 65.1235 408.795 Q63.8352 407.99 62.547 407.443 Q61.2266 406.863 59.7451 406.444 Q58.9399 406.187 58.7467 406.058 Q58.5535 405.897 58.5535 405.446 Q58.5535 404.673 59.1976 404.673 Z" fill="#000000" fill-rule="nonzero" fill-opacity="1" /><path clip-path="url(#clip480)" d="M52.1445 396.529 Q41.0013 396.529 32.0158 392.375 Q28.2478 390.603 25.0916 388.123 Q21.9354 385.644 20.5506 384.001 Q19.1657 382.359 19.1657 381.908 Q19.1657 381.264 19.8098 381.231 Q20.1319 381.231 20.937 382.101 Q31.7582 392.729 52.1445 392.697 Q72.5952 392.697 82.9977 382.359 Q84.1249 381.231 84.4792 381.231 Q85.1233 381.231 85.1233 381.908 Q85.1233 382.359 83.8029 383.937 Q82.4824 385.515 79.4551 387.962 Q76.4277 390.41 72.724 392.181 Q63.7386 396.529 52.1445 396.529 Z" fill="#000000" fill-rule="nonzero" fill-opacity="1" /><path clip-path="url(#clip480)" d="M43.6422 345.308 Q45.4779 345.308 46.5729 346.435 Q47.6679 347.53 47.6679 348.915 Q47.6679 350.139 46.9594 350.783 Q46.2508 351.427 45.3491 351.427 Q44.9626 351.427 44.4795 351.266 Q43.9642 351.105 43.3523 350.751 Q42.7404 350.364 42.2895 349.559 Q41.8386 348.754 41.7742 347.659 Q41.5488 347.884 41.5166 347.949 Q41.1301 348.432 41.0013 349.334 Q40.9369 349.462 40.9369 349.913 Q40.9369 352.136 42.5794 354.39 Q44.1897 356.612 47.2492 359.35 Q50.8241 362.796 52.1445 365.018 Q53.4327 355.26 59.0688 355.26 Q60.0027 355.26 61.1299 355.517 Q63.2555 356.032 64.8014 356.032 Q67.8932 356.032 67.8932 353.939 Q67.8932 351.91 65.832 350.622 Q63.7708 349.301 59.7451 348.206 Q59.0044 348.045 58.7789 347.884 Q58.5535 347.723 58.5535 347.272 Q58.5535 346.467 59.1976 346.467 Q62.9657 347.208 65.8642 348.851 Q69.3746 350.944 69.3746 354.068 Q69.3746 356.677 67.5711 358.416 Q65.7354 360.123 62.8368 360.123 Q62.1283 360.123 60.518 359.865 Q59.8739 359.672 59.1332 359.672 Q57.6195 359.672 56.4923 360.509 Q55.3329 361.346 54.7532 362.699 Q54.1735 364.052 53.9158 365.179 Q53.626 366.274 53.5294 367.337 Q67.1524 370.557 67.9898 371.008 Q68.5695 371.298 68.956 371.942 Q69.3746 372.586 69.3746 373.263 Q69.3746 373.907 68.9238 374.551 Q68.5051 375.163 67.5067 375.163 Q66.9914 375.163 66.0574 374.905 L28.0545 365.34 L26.7663 365.147 Q26.3798 365.147 26.1866 365.308 Q25.9611 365.437 25.8001 366.21 Q25.6391 366.95 25.6391 368.432 Q25.6391 369.044 25.6069 369.333 Q25.5747 369.591 25.4136 369.817 Q25.2204 370.042 24.8339 370.042 Q24.2864 370.042 23.9966 369.817 Q23.6745 369.559 23.6101 369.366 Q23.5457 369.172 23.5135 368.786 Q23.4813 368.238 23.3203 366.403 Q23.127 364.567 22.9982 362.989 Q22.8694 361.411 22.8694 360.735 Q22.8694 360.348 23.0626 360.155 Q23.2236 359.929 23.4169 359.897 L23.5779 359.865 L51.4038 366.725 Q50.2766 363.891 45.2847 359.414 Q39.4876 354.229 39.4876 349.785 Q39.4876 347.691 40.7758 346.5 Q42.0319 345.308 43.6422 345.308 Z" fill="#000000" fill-rule="nonzero" fill-opacity="1" /><path clip-path="url(#clip480)" d="M67.5711 340.194 Q66.5083 341.128 65.1235 341.128 Q63.7386 341.128 62.708 340.227 Q61.6452 339.293 61.6452 337.618 Q61.6452 335.653 63.5454 334.526 Q65.4133 333.399 68.5695 333.399 Q71.9833 333.399 75.1395 334.784 Q78.3279 336.169 79.8415 337.521 Q81.3552 338.874 81.3552 339.421 Q81.3552 340.066 80.6467 340.066 Q80.389 340.066 79.906 339.615 Q74.8174 334.88 68.5695 334.848 Q67.5711 334.848 67.5711 334.977 L67.6999 335.138 Q68.6339 336.265 68.6339 337.618 Q68.6339 339.26 67.5711 340.194 Z" fill="#000000" fill-rule="nonzero" fill-opacity="1" /><path clip-path="url(#clip480)" d="M40.1317 284.63 Q40.3572 284.63 41.3233 285.178 Q42.2573 285.693 44.6083 287.593 Q46.9594 289.493 49.6969 292.328 Q50.7597 293.39 52.2411 295.001 Q53.7226 296.611 54.6888 297.706 L55.6549 298.801 Q59.1976 302.988 63.1589 306.659 Q63.0623 306.401 63.0301 305.951 Q62.9657 305.5 62.9657 305.178 L62.9657 304.856 Q62.9657 303.181 64.0929 300.25 Q64.9302 297.674 64.9302 296.353 Q64.9302 295.065 64.4793 293.648 Q64.0285 292.231 62.708 290.685 Q61.3876 289.139 59.3908 288.431 Q59.0688 288.302 58.9721 288.237 Q58.8433 288.173 58.7145 287.98 Q58.5535 287.786 58.5535 287.529 Q58.5535 287.175 58.7467 286.949 Q58.9399 286.724 59.1976 286.724 Q59.7773 286.724 60.9367 287.175 Q62.0961 287.593 63.5454 288.527 Q64.9946 289.429 66.3151 290.621 Q67.6033 291.78 68.5051 293.519 Q69.3746 295.258 69.3746 297.094 Q69.3746 298.414 68.7305 299.381 Q68.1186 300.347 66.927 301.313 Q65.4133 302.633 64.9302 303.342 Q64.4149 304.05 64.4149 305.145 Q64.4149 308.076 68.5051 310.749 Q69.0848 311.039 69.2136 311.232 Q69.3746 311.393 69.3746 311.78 Q69.3424 312.585 68.6983 312.585 Q68.4407 312.585 67.3135 311.876 Q66.1541 311.136 64.1251 309.493 Q62.0961 307.819 60.0671 305.79 L54.5277 299.864 Q48.9883 293.294 45.8644 290.685 Q45.8644 291.78 45.8322 292.263 Q45.7999 292.714 45.6067 293.616 Q45.3813 294.518 44.8982 295.774 Q43.8998 298.704 43.8998 299.928 Q43.8998 300.25 43.932 300.604 Q43.9642 300.959 44.1252 301.764 Q44.2863 302.537 44.6083 303.181 Q44.8982 303.825 45.5423 304.501 Q46.1542 305.178 46.9916 305.532 Q47.2492 305.629 47.378 305.693 Q47.5069 305.757 47.6357 305.951 Q47.7323 306.112 47.7323 306.369 Q47.7323 306.756 47.5069 306.981 Q47.2814 307.174 46.9916 307.174 Q46.4119 307.174 45.2202 306.595 Q44.0286 306.015 42.7404 305.049 Q41.42 304.083 40.4538 302.505 Q39.4876 300.926 39.4876 299.187 Q39.4876 298.157 39.9385 297.287 Q40.3894 296.385 40.8725 295.935 Q41.3233 295.451 42.3217 294.646 Q43.0947 293.97 43.4167 293.648 Q43.7388 293.326 44.093 292.682 Q44.4151 292.005 44.4151 291.265 Q44.4151 290.041 43.4811 288.914 Q42.5149 287.786 40.1961 286.337 Q39.4876 285.951 39.4876 285.339 Q39.4876 284.63 40.1317 284.63 Z" fill="#000000" fill-rule="nonzero" fill-opacity="1" /><path clip-path="url(#clip480)" d="M81.412 277.863 Q80.0368 277.863 79.383 277.074 Q78.7292 276.285 78.7292 275.27 Q78.7292 274.211 79.4281 273.467 Q80.1044 272.7 81.2993 272.7 Q82.5843 272.7 83.3057 273.602 Q84.0271 274.481 83.8468 275.744 Q85.6954 274.639 86.5295 272.61 Q87.3636 270.558 87.3636 268.665 Q87.3636 266.681 85.6503 265.08 Q83.9369 263.457 79.7437 263.457 Q76.1818 263.457 74.1302 264.855 Q72.0787 266.23 72.0787 268.958 L72.0787 270.987 Q72.0787 271.686 72.0111 271.889 Q71.9435 272.091 71.5602 272.091 Q71.1093 272.091 71.0192 271.393 Q71.0192 270.694 70.8839 269.589 Q70.7937 266.906 68.4717 265.486 Q66.3074 264.201 63.2189 264.201 Q60.4009 264.201 59.2286 265.554 Q58.0338 266.884 58.0338 268.62 Q58.0338 270.243 58.7101 272.024 Q59.3864 273.805 60.8969 274.774 Q60.8969 271.911 63.2189 271.911 Q64.2334 271.911 64.9097 272.565 Q65.5635 273.196 65.5635 274.256 Q65.5635 275.27 64.9323 275.946 Q64.2785 276.623 63.1738 276.623 Q60.5362 276.623 58.7101 274.278 Q56.884 271.911 56.884 268.439 Q56.884 265.013 58.6875 262.488 Q60.4911 259.94 63.264 259.94 Q65.9918 259.94 68.2237 261.744 Q70.4556 263.547 71.3799 266.41 Q72.0787 262.893 74.4684 260.797 Q76.8355 258.7 79.7437 258.7 Q83.3508 258.7 86.011 261.541 Q88.6486 264.381 88.6486 268.529 Q88.6486 272.362 86.5746 275.112 Q84.5005 277.863 81.412 277.863 Z" fill="#000000" fill-rule="nonzero" fill-opacity="1" /><path clip-path="url(#clip480)" d="M84.4792 251.846 Q84.1571 251.846 83.352 251.009 Q72.5308 240.381 52.1445 240.381 Q31.6938 240.381 21.3557 250.59 Q20.1641 251.846 19.8098 251.846 Q19.1657 251.846 19.1657 251.202 Q19.1657 250.751 20.4861 249.173 Q21.8066 247.563 24.8339 245.147 Q27.8613 242.7 31.565 240.896 Q40.5504 236.548 52.1445 236.548 Q63.2877 236.548 72.2732 240.703 Q76.0413 242.474 79.1974 244.954 Q82.3536 247.434 83.7385 249.076 Q85.1233 250.719 85.1233 251.202 Q85.1233 251.846 84.4792 251.846 Z" fill="#000000" fill-rule="nonzero" fill-opacity="1" /><polyline clip-path="url(#clip481)" style="stroke:#0f6a81; stroke-linecap:round; stroke-linejoin:round; stroke-width:8; stroke-opacity:1; fill:none" stroke-dasharray="32, 20" points="260.704,1030.98 277.132,1014.64 293.56,999.352 309.988,985.006 326.415,971.494 342.843,958.727 359.271,946.634 375.698,935.153 392.126,924.23 408.554,913.82 424.981,903.881 441.409,894.379 457.837,885.283 474.264,876.565 490.692,868.2 507.12,860.166 523.547,852.443 539.975,788.581 556.403,781.426 572.83,774.533 589.258,767.887 605.686,761.476 622.114,755.287 638.541,749.312 654.969,743.539 671.397,737.959 687.824,732.565 704.252,727.347 720.68,722.299 737.107,660.984 753.535,656.255 769.963,651.676 786.39,647.243 802.818,642.948 819.246,638.788 835.673,634.757 852.101,630.852 868.529,627.067 884.956,623.399 901.384,563.413 917.812,559.968 934.24,556.628 950.667,553.392 967.095,550.255 983.523,547.215 999.95,544.27 1016.38,541.415 1032.81,538.649 1049.23,535.97 1065.66,533.375 1082.09,474.431 1098.52,471.997 1114.94,469.641 1131.37,467.36 1147.8,465.154 1164.23,406.588 1180.65,404.524 1197.08,402.528 1213.51,400.6 1229.94,398.737 1246.37,396.937 1262.79,395.2 1279.22,393.525 1295.65,391.909 1312.08,333.921 1328.5,332.421 1344.93,330.977 1361.36,329.588 1377.79,328.253 1394.21,326.971 1410.64,325.74 1427.07,324.56 1443.5,323.43 1459.93,265.917 1476.35,264.883 1492.78,263.896 1509.21,262.956 1525.64,262.06 1542.06,261.209 1558.49,260.401 1574.92,259.636 1591.35,202.482 1607.77,201.801 1624.2,201.16 1640.63,200.559 1657.06,199.997 1673.49,199.474 1689.91,198.989 1706.34,142.11 1722.77,141.699 1739.2,141.324 1755.62,140.985 1772.05,140.681 1788.48,140.411 1804.91,140.176 1821.33,139.973 1837.76,83.3734 1854.19,83.2366 1870.62,83.1318 1887.05,83.0585 1903.47,83.0163 "/>
<polyline clip-path="url(#clip481)" style="stroke:#c2676d; stroke-linecap:round; stroke-linejoin:round; stroke-width:8; stroke-opacity:1; fill:none" points="260.704,1036.29 277.132,1020.79 293.56,1005.75 309.988,991.115 326.415,976.852 342.843,962.92 359.271,949.29 375.698,935.934 392.126,922.834 408.554,909.969 424.981,897.32 441.409,884.873 457.837,872.613 474.264,860.529 490.692,848.611 507.12,836.848 523.547,825.233 539.975,813.757 556.403,802.414 572.83,791.195 589.258,780.097 605.686,769.114 622.114,758.239 638.541,747.47 654.969,736.803 671.397,726.231 687.824,715.751 704.252,705.358 720.68,695.049 737.107,684.822 753.535,674.673 769.963,664.6 786.39,654.602 802.818,644.675 819.246,634.819 835.673,625.03 852.101,615.305 868.529,605.641 884.956,596.038 901.384,586.492 917.812,577.004 934.24,567.571 950.667,558.193 967.095,548.869 983.523,539.599 999.95,530.378 1016.38,521.204 1032.81,512.077 1049.23,502.994 1065.66,493.956 1082.09,484.96 1098.52,476.007 1114.94,467.099 1131.37,458.238 1147.8,449.416 1164.23,440.633 1180.65,431.887 1197.08,423.178 1213.51,414.504 1229.94,405.866 1246.37,397.261 1262.79,388.694 1279.22,380.162 1295.65,371.663 1312.08,363.197 1328.5,354.763 1344.93,346.359 1361.36,337.986 1377.79,329.642 1394.21,321.33 1410.64,313.047 1427.07,304.793 1443.5,296.567 1459.93,288.369 1476.35,280.197 1492.78,272.052 1509.21,263.933 1525.64,255.842 1542.06,247.776 1558.49,239.735 1574.92,231.718 1591.35,223.726 1607.77,215.758 1624.2,207.812 1640.63,199.889 1657.06,191.992 1673.49,184.117 1689.91,176.263 1706.34,168.431 1722.77,160.62 1739.2,152.832 1755.62,145.063 1772.05,137.316 1788.48,129.59 1804.91,121.883 1821.33,114.197 1837.76,106.53 1854.19,98.8812 1870.62,91.2518 1887.05,83.6413 1903.47,76.0513 "/>
<path clip-path="url(#clip480)" d="M269.466 236.693 L512.256 236.693 L512.256 81.1726 L269.466 81.1726  Z" fill="#ffffff" fill-rule="evenodd" fill-opacity="1"/>
<polyline clip-path="url(#clip480)" style="stroke:#000000; stroke-linecap:round; stroke-linejoin:round; stroke-width:4; stroke-opacity:0; fill:none" points="269.466,236.693 512.256,236.693 512.256,81.1726 269.466,81.1726 269.466,236.693 "/>
<polyline clip-path="url(#clip480)" style="stroke:#0f6a81; stroke-linecap:round; stroke-linejoin:round; stroke-width:8; stroke-opacity:1; fill:none" stroke-dasharray="32, 20" points="288.814,133.013 404.903,133.013 "/>
<path clip-path="url(#clip480)" d="M437.446 150.293 L424.251 115.733 L429.135 115.733 L440.084 144.83 L451.057 115.733 L455.918 115.733 L442.746 150.293 L437.446 150.293 Z" fill="#000000" fill-rule="nonzero" fill-opacity="1" /><path clip-path="url(#clip480)" d="M460.964 115.733 L480.825 115.733 L480.825 119.668 L465.64 119.668 L465.64 129.853 L479.343 129.853 L479.343 133.788 L465.64 133.788 L465.64 150.293 L460.964 150.293 L460.964 115.733 Z" fill="#000000" fill-rule="nonzero" fill-opacity="1" /><path clip-path="url(#clip480)" d="M488.232 115.733 L492.908 115.733 L492.908 150.293 L488.232 150.293 L488.232 115.733 Z" fill="#000000" fill-rule="nonzero" fill-opacity="1" /><polyline clip-path="url(#clip480)" style="stroke:#c2676d; stroke-linecap:round; stroke-linejoin:round; stroke-width:8; stroke-opacity:1; fill:none" points="288.814,184.853 404.903,184.853 "/>
<path clip-path="url(#clip480)" d="M428.927 171.415 L428.927 184.401 L434.807 184.401 Q438.071 184.401 439.853 182.711 Q441.635 181.022 441.635 177.897 Q441.635 174.795 439.853 173.105 Q438.071 171.415 434.807 171.415 L428.927 171.415 M424.251 167.573 L434.807 167.573 Q440.617 167.573 443.58 170.211 Q446.566 172.827 446.566 177.897 Q446.566 183.012 443.58 185.628 Q440.617 188.244 434.807 188.244 L428.927 188.244 L428.927 202.133 L424.251 202.133 L424.251 167.573 Z" fill="#000000" fill-rule="nonzero" fill-opacity="1" /><path clip-path="url(#clip480)" d="M452.839 167.573 L472.7 167.573 L472.7 171.508 L457.515 171.508 L457.515 181.693 L471.219 181.693 L471.219 185.628 L457.515 185.628 L457.515 202.133 L452.839 202.133 L452.839 167.573 Z" fill="#000000" fill-rule="nonzero" fill-opacity="1" /><path clip-path="url(#clip480)" d="M480.107 167.573 L484.783 167.573 L484.783 202.133 L480.107 202.133 L480.107 167.573 Z" fill="#000000" fill-rule="nonzero" fill-opacity="1" /></svg>
